<?xml version="1.0" encoding="utf-8"?><svg version="1.1" id="Layer_1" xmlns="http://www.w3.org/2000/svg" xmlns:xlink="http://www.w3.org/1999/xlink" x="0px" y="0px" viewBox="0 0 121.7 122.88" style="enable-background:new 0 0 121.7 122.88" xml:space="preserve"><g><path d="M53.62,0c14.81,0,28.21,6,37.91,15.71c9.7,9.7,15.71,23.11,15.71,37.91c0,10.83-3.21,20.91-8.74,29.35l23.21,25.29 l-16,14.63L83.32,98.26c-8.5,5.67-18.72,8.98-29.7,8.98c-14.81,0-28.21-6-37.91-15.71C6,81.82,0,68.42,0,53.62 C0,38.81,6,25.41,15.7,15.7C25.41,6,38.81,0,53.62,0L53.62,0L53.62,0z M54.73,41.18l1.49-5.67l-8.46-2.97l17.18-9.21l9.14,17.42 l-8.99-2.8l-1.25,5.95L54.73,41.18L54.73,41.18z M83.18,81.99H29.67c-1.07,0-2.09-0.43-2.85-1.19c-0.72-0.72-1.17-1.73-1.17-2.83 L25.64,35.1h6.06v40.83h51.48V81.99L83.18,81.99z M69.92,53.32h7.75c0.44,0,0.79,0.36,0.79,0.79v16.14c0,0.44-0.36,0.79-0.79,0.79 h-7.75c-0.44,0-0.79-0.36-0.79-0.79V54.12C69.12,53.68,69.48,53.32,69.92,53.32L69.92,53.32L69.92,53.32z M39.38,43.44h7.75 c0.44,0,0.79,0.36,0.79,0.79v26.03c0,0.44-0.36,0.79-0.79,0.79h-7.75c-0.44,0-0.79-0.36-0.79-0.79V44.24 C38.59,43.8,38.94,43.44,39.38,43.44L39.38,43.44L39.38,43.44L39.38,43.44z M63.42,48.68v21.59c0,0.44-0.36,0.79-0.79,0.79h-7.74 c-0.44,0-0.79-0.36-0.79-0.79V46.01l8.38,2.49c0.13,0.04,0.26,0.07,0.39,0.1C63.04,48.63,63.23,48.66,63.42,48.68L63.42,48.68z M87.3,19.93C78.68,11.31,66.77,5.98,53.62,5.98c-13.15,0-25.06,5.33-33.68,13.95C11.31,28.55,5.98,40.46,5.98,53.62 c0,13.15,5.33,25.06,13.95,33.68c8.62,8.62,20.53,13.95,33.68,13.95c13.16,0,25.06-5.33,33.68-13.95 c8.62-8.62,13.95-20.53,13.95-33.68C101.25,40.46,95.92,28.55,87.3,19.93L87.3,19.93L87.3,19.93z"/></g></svg>