<?xml version="1.0" standalone="no"?>
<!DOCTYPE svg PUBLIC "-//W3C//DTD SVG 20010904//EN"
 "http://www.w3.org/TR/2001/REC-SVG-20010904/DTD/svg10.dtd">
<svg version="1.0" xmlns="http://www.w3.org/2000/svg"
 width="512.000000pt" height="512.000000pt" viewBox="0 0 512.000000 512.000000"
 preserveAspectRatio="xMidYMid meet">

<g transform="translate(0.000000,512.000000) scale(0.100000,-0.100000)"
fill="#000000" stroke="none">
<path d="M720 4356 c-194 -55 -340 -206 -385 -397 -22 -96 -22 -2702 0 -2798
42 -176 183 -332 351 -387 57 -18 111 -19 1874 -19 1763 0 1817 1 1874 19 169
56 309 210 351 387 22 96 22 2702 0 2798 -41 173 -171 320 -340 384 l-60 22
-1810 2 c-1439 1 -1819 -1 -1855 -11z m3678 -225 c68 -31 144 -113 169 -183
17 -50 18 -119 18 -1388 0 -1269 -1 -1338 -18 -1388 -25 -70 -101 -152 -169
-183 l-53 -24 -1785 0 -1785 0 -53 24 c-64 29 -143 112 -168 178 -18 46 -19
110 -22 1358 -3 1341 -2 1387 35 1459 21 41 92 115 127 133 82 43 29 42 1881
40 l1770 -2 53 -24z"/>
<path d="M1228 3503 c-27 -17 -46 -45 -49 -73 -6 -56 2 -65 403 -467 l403
-403 -398 -398 c-398 -399 -418 -422 -409 -479 9 -58 95 -98 148 -70 49 26
902 888 909 920 4 15 4 39 0 55 -7 30 -860 893 -907 918 -35 18 -67 17 -100
-3z"/>
<path d="M2497 1790 c-38 -30 -52 -80 -33 -123 29 -69 1 -67 736 -67 735 0
707 -2 736 67 19 43 5 93 -33 123 -25 20 -39 20 -703 20 -664 0 -678 0 -703
-20z"/>
</g>
</svg>
